<?xml version="1.0" encoding="utf-8"?>
<!-- Generator: Adobe Illustrator 16.0.0, SVG Export Plug-In . SVG Version: 6.00 Build 0)  -->
<!DOCTYPE svg PUBLIC "-//W3C//DTD SVG 1.1//EN" "http://www.w3.org/Graphics/SVG/1.1/DTD/svg11.dtd">
<svg version="1.1" id="Layer_1" xmlns="http://www.w3.org/2000/svg" xmlns:xlink="http://www.w3.org/1999/xlink" x="0px" y="0px"
	 width="100px" height="100px" viewBox="0 0 100 100" enable-background="new 0 0 100 100" xml:space="preserve">
<path fill-rule="evenodd" clip-rule="evenodd" fill="#D2D6D9" stroke="#BABDBF" stroke-width="2" stroke-miterlimit="10" d="M3.94,1
	H96.06C97.684,1,99,2.316,99,3.94V96.06c0,1.625-1.316,2.94-2.94,2.94H3.94C2.316,99,1,97.685,1,96.06V3.94C1,2.316,2.316,1,3.94,1z
	"/>
<path fill="#EBEFF1" d="M76.985,65.676c-4.349-1.933-10.801-6.912-20.355-8.623c2.442-2.615,4.292-6.705,6.194-11.551
	c1.103-2.808,0.914-5.201,0.914-8.609c0-2.518,0.474-6.558-0.151-8.778c-2.106-7.504-7.432-9.574-13.671-9.574
	c-6.244,0-11.575,2.08-13.679,9.597c-0.62,2.214-0.145,6.245-0.145,8.756c0,3.416-0.186,5.817,0.92,8.63
	c1.917,4.87,3.739,8.954,6.174,11.559c-9.479,1.742-15.883,6.685-20.204,8.611c-8.941,3.987-8.985,8.353-8.985,8.353v7.415
	l72.006-0.009v-7.406C86.003,74.045,85.961,69.665,76.985,65.676z"/>
</svg>
